<svg width="24" height="18" viewBox="0 0 24 18" fill="none" xmlns="http://www.w3.org/2000/svg">
<path d="M0.457451 2H14.181C14.4335 2 14.6384 1.553 14.6384 1C14.6384 0.447 14.4335 0 14.181 0H0.457451C0.204938 0 0 0.447 0 1C0 1.553 0.204481 2 0.457451 2Z" fill="white"/>
<path d="M7.80934 18H22.5131C22.7837 18 23.0033 17.553 23.0033 17C23.0033 16.447 22.7837 16 22.5131 16H7.80934C7.53879 16 7.31921 16.447 7.31921 17C7.31921 17.553 7.5383 18 7.80934 18Z" fill="white"/>
<path d="M0.718852 10H22.2844C22.6812 10 23.0033 9.553 23.0033 9C23.0033 8.447 22.6812 8 22.2844 8H0.718852C0.322046 8 0 8.447 0 9C0 9.553 0.321327 10 0.718852 10Z" fill="white"/>
</svg>
